<?xml version="1.0" encoding="utf-8"?>
<!-- Generator: Adobe Illustrator 15.1.0, SVG Export Plug-In . SVG Version: 6.00 Build 0)  -->
<!DOCTYPE svg PUBLIC "-//W3C//DTD SVG 1.1//EN" "http://www.w3.org/Graphics/SVG/1.1/DTD/svg11.dtd">
<svg version="1.1" id="Layer_1" xmlns="http://www.w3.org/2000/svg" xmlns:xlink="http://www.w3.org/1999/xlink" x="0px" y="0px"
	 width="700px" height="269.36px" viewBox="491.889 460.594 700 269.36" enable-background="new 491.889 460.594 700 269.36"
	 xml:space="preserve">
<g id="Layer_x0020_1">
	<path d="M972.566,653.675c-1.29,4.937-1.957,10.096-1.957,15.434c0,33.625,27.265,60.846,60.891,60.846
		c33.625,0,60.891-27.221,60.891-60.846c0-5.293-0.667-10.408-1.957-15.301h17.524l6.672,5.961h77.259v-31.18h-9.162h-1.469
		c0.801,0,1.469-0.667,1.469-1.468v-81.84c0-7.206-5.383-13.21-12.321-14.189v-0.178l-283.549,2.802l-4.938-48.837
		c-1.778-5.649-4.047-13.966-8.006-18.103c-2.312-2.446-5.471-4.315-9.118-5.249c-3.603-0.934-7.694-0.934-26.153-0.934
		c-18.458,0-51.283,0-69.697,0.534c-18.37,0.534-22.328,1.557-25.442,3.158c-3.069,1.646-5.249,3.826-14.055,16.679
		c-8.851,12.854-24.285,28.511-32.024,40.253c-7.695,11.787-7.695,11.787-10.452,11.964c-2.714,0.223-8.184,0.624-33.849,2.758
		c-25.619,2.09-71.432,5.915-96.206,8.406c-24.73,2.446-28.422,3.558-31.713,5.204c-3.292,1.601-6.138,3.825-9.163,6.627
		c-3.024,2.802-6.138,6.227-8.362,10.63c-2.045,4.181-3.247,9.252-3.558,16.546c-0.222,0.623-0.356,1.334-0.356,2.002v39.585
		c0,1.557,0.624,2.936,1.646,3.959c0.356,0.355,0.756,0.667,1.156,0.934c0.223,2.224,0.401,4.358,0.623,6.315h-15.3v31.18h50.039
		l3.247-12.721h11.831c-1.112,4.671-1.734,9.474-1.734,14.5c0,33.625,27.265,60.846,60.891,60.846
		c33.625,0,60.89-27.221,60.89-60.846c0-5.159-0.623-10.142-1.823-14.9h15.211l7.784,10.052H955.22l6.983-10.585H972.566
		L972.566,653.675z M508.702,586.468h5.07c1.69,0,3.203,0.578,4.403,1.601v36.873c0,0.178-0.088,0.355-0.222,0.489
		c-0.089,0.133-0.268,0.178-0.445,0.178h-8.14c-0.178,0-0.356-0.045-0.489-0.178c-0.088-0.134-0.178-0.312-0.178-0.489V586.468z
		 M716.771,537.274l30.378-52.618l-7.383-7.383l-40.609,55.731L716.771,537.274z M790.783,485.235
		c7.694,0.044,18.014,0.044,28.377,0.044c10.319,0,20.638,0,25.754,0c5.114,0,5.292-0.044,5.56,3.114l3.157,43.055
		c0.178,2.536-4.27,3.47-6.405,4.403c-2.179,0.979-3.958,1.29-7.472,1.468c-3.514,0.178-8.762,0.178-19.215,0.178
		c-10.408,0-26.02,0-33.804,0.089c-7.783,0.044-7.783,0.178-8.807-3.469c-0.979-3.647-2.936-11.12-3.958-14.855
		c-0.979-3.692-0.979-3.692-0.979-10.097c0-6.405,0-11.298,0-17.703c0-6.405,0-6.405,2.536-6.36
		C778.062,485.146,783.089,485.191,790.783,485.235z M766.409,485.591c0.445,0.089,0.445,0.089,0.445,6.538
		c0,6.494,0,11.52-0.045,18.014c-0.044,6.494-0.088,6.583-0.934,10.007c-0.801,3.381-2.402,10.186-3.203,13.566
		c-0.845,3.38-0.89,3.38-7.206,3.38c-6.271,0-18.77,0-25.042,0.044c-6.271,0-6.271,0.089-1.468-9.83
		c4.804-9.918,14.367-21.927,19.126-31.891c4.804-9.963,4.804-9.963,6.672-10.008c1.912-0.088,5.649-0.222,7.961-0.178
		C765.075,485.279,765.965,485.458,766.409,485.591z M616.162,637.751c-17.302,0-31.357,14.011-31.357,31.357
		c0,17.302,14.055,31.312,31.357,31.312s31.357-14.011,31.357-31.312C647.519,651.762,633.464,637.751,616.162,637.751z
		 M616.162,647.67c-11.832,0-21.439,9.562-21.439,21.438c0,11.831,9.607,21.394,21.439,21.394c11.831,0,21.438-9.562,21.438-21.394
		C637.6,657.232,627.993,647.67,616.162,647.67z M616.162,632.814c-20.016,0-36.25,16.234-36.25,36.294
		c0,20.016,16.234,36.25,36.25,36.25c20.015,0,36.294-16.234,36.294-36.25C652.456,649.049,636.177,632.814,616.162,632.814z
		 M1031.5,637.751c-17.303,0-31.357,14.011-31.357,31.357c0,17.302,14.055,31.312,31.357,31.312
		c17.302,0,31.357-14.011,31.357-31.312C1062.857,651.762,1048.802,637.751,1031.5,637.751z M1031.5,647.67
		c-11.832,0-21.439,9.562-21.439,21.438c0,11.831,9.607,21.394,21.439,21.394c11.831,0,21.438-9.562,21.438-21.394
		C1052.938,657.232,1043.331,647.67,1031.5,647.67z M1031.5,632.814c-20.016,0-36.25,16.234-36.25,36.294
		c0,20.016,16.234,36.25,36.25,36.25c20.015,0,36.295-16.234,36.295-36.25C1067.795,649.049,1051.515,632.814,1031.5,632.814z"/>
</g>
</svg>
